<?xml version="1.0" encoding="UTF-8" standalone="no"?>
<svg
   xmlns:dc="http://purl.org/dc/elements/1.1/"
   xmlns:cc="http://creativecommons.org/ns#"
   xmlns:rdf="http://www.w3.org/1999/02/22-rdf-syntax-ns#"
   xmlns:svg="http://www.w3.org/2000/svg"
   xmlns="http://www.w3.org/2000/svg"
   xmlns:sodipodi="http://sodipodi.sourceforge.net/DTD/sodipodi-0.dtd"
   xmlns:inkscape="http://www.inkscape.org/namespaces/inkscape"
   height="48"
   width="48"
   version="1.1"
   id="svg4"
   sodipodi:docname="phone.svg"
   inkscape:version="0.92.5 (2060ec1f9f, 2020-04-08)">
  <metadata
     id="metadata10">
    <rdf:RDF>
      <cc:Work
         rdf:about="">
        <dc:format>image/svg+xml</dc:format>
        <dc:type
           rdf:resource="http://purl.org/dc/dcmitype/StillImage" />
      </cc:Work>
    </rdf:RDF>
  </metadata>
  <defs
     id="defs8" />
  <sodipodi:namedview
     pagecolor="#ffffff"
     bordercolor="#666666"
     borderopacity="1"
     objecttolerance="10"
     gridtolerance="10"
     guidetolerance="10"
     inkscape:pageopacity="0"
     inkscape:pageshadow="2"
     inkscape:window-width="1366"
     inkscape:window-height="702"
     id="namedview6"
     showgrid="false"
     inkscape:zoom="8.4150641"
     inkscape:cx="59.186441"
     inkscape:cy="24"
     inkscape:window-x="0"
     inkscape:window-y="0"
     inkscape:window-maximized="1"
     inkscape:current-layer="svg4" />
  <path
     d="M38.8 23.65q-.25-6.05-4.45-10.25T24.1 8.95v-3q3.6.1 6.775 1.525Q34.05 8.9 36.45 11.3q2.4 2.4 3.825 5.575Q41.7 20.05 41.8 23.65Zm-8.45 0q-.25-2.5-2-4.225Q26.6 17.7 24.1 17.45v-3q3.75.25 6.375 2.85t2.875 6.35ZM39.75 42q-6.1 0-12.125-3T16.8 31.2Q12 26.4 9 20.375 6 14.35 6 8.25q0-.95.65-1.6Q7.3 6 8.25 6h7q.7 0 1.225.475.525.475.675 1.275l1.35 6.3q.1.7-.025 1.275t-.525.975l-5 5.05q2.8 4.65 6.275 8.1Q22.7 32.9 27.1 35.3l4.75-4.9q.5-.55 1.15-.775.65-.225 1.3-.075l5.95 1.3q.75.15 1.25.75T42 33v6.75q0 .95-.65 1.6-.65.65-1.6.65Zm-28.3-23.4 4.05-4.1L14.35 9H9q0 1.95.6 4.275t1.85 5.325ZM29.9 36.75q2.05.95 4.45 1.55 2.4.6 4.65.7v-5.35l-5.15-1.05ZM11.45 18.6ZM29.9 36.75Z"
     id="path2"
     style="fill:#ffffff" />
</svg>
